<svg version="1.1" xmlns="http://www.w3.org/2000/svg" xmlns:xlink="http://www.w3.org/1999/xlink" width="1024" height="1024" viewBox="0 0 1024 1024"><path stroke="none" fill="black" fill-rule="evenodd" d="M495.0,801.0C494.09870808164396,800.4175404276557 493.9753674337122,800.024513627797 494.69098300562507,800.015312774517C495.3460236587188,800.0068907485327 496.1600813061875,800.45 496.5,801.0C497.26730476831557,802.2415251948645 496.92112324648235,802.2415251948645 495.0,801.0zM507.5643352922061,799.8959033105343C507.8799590121115,799.3852134040717 508.5294451777831,799.2091811262998 509.00763788258746,799.5047204710411C509.4858305873918,799.8002598157825 510.28768998663696,799.3083439007399 510.78954765868787,798.4115739931689C511.62033405362456,796.927041066624 511.75689085762974,796.9240844392901 512.3150199694978,798.3785455903435C512.6521720683924,799.2571498763607 512.606718433894,799.9281166709471 512.2140118928348,799.8695829116467C511.82130535177566,799.8110491523463 511.275,799.8508774411717 511.0,799.9580902201478C509.0877961040023,800.7035909243608 507.0875331623173,800.6673853626028 507.5643352922061,799.8959033105343zM500.0,795.6069888041843C500.0,795.3908326464857 500.6983720044093,794.9459871252318 501.5519377875762,794.618443201398C502.4418629270828,794.2769468834097 502.8432595915169,794.4445943139611 502.4929207932013,795.0114543972137C501.90566285154995,795.9616577069688 500.0,796.4169019326494 500.0,795.6069888041843zM486.6030056647917,790.1666666666667C486.3197400866146,789.7083333333334 486.7233875374584,789.3333333333334 487.5,789.3333333333334C488.2766124625416,789.3333333333334 488.6802599133854,789.7083333333334 488.3969943352083,790.1666666666667C488.1137287570313,790.625 487.71008130618753,791.0 487.5,791.0C487.28991869381247,791.0 486.8862712429687,790.625 486.6030056647917,790.1666666666667zM511.6403741102892,710.250013574024L341.7807482205784,709.9942256831641L342.1403741102892,459.99756558545914L342.5,210.0009054877542L352.5,209.86339984418234C358.0,209.7877717402178 396.025,209.4500680054731 437.0,209.11294710030523L511.5,208.5L511.1529352364189,392.0C510.9620496164493,492.925 511.1165456696843,579.6625 511.49625979916334,584.75L512.1866491254889,594.0L597.0933245627444,594.0L682.0,594.0L682.0,652.5C682.0,684.675 681.8875,710.8888053295989 681.75,710.752900732442C681.6125,710.6169961352851 605.0631683496301,710.3906969139971 511.6403741102892,710.250013574024zM433.26786548754563,656.4639489920078L437.0,653.9278979840155L437.0,459.4639489920078C437.0,265.06439696895467 436.9993244735656,264.99932447356565 434.9600664407831,262.9600664407832C430.52118002752184,258.5211800275219 424.91238693311647,257.91673873691167 420.63381166569235,261.4161728115987L417.7676233313847,263.7604197850976L417.84463818502377,456.4096024187869C417.9299085576475,669.7095934286625 417.35286396498043,651.8125899367436 424.3041185762083,656.75C428.27842711584157,659.5729135710806 428.71302266043546,659.559044762107 433.26786548754563,656.4639489920078zM605.5,298.27871382188204C597.9214148650527,297.5440953846919 590.1541206196426,295.60505222510284 585.6526363818803,293.3239775335879C574.3473736642845,287.5951673669985 565.7349191057349,274.74857797223785 563.691789720066,260.56653563271186C561.8193005989092,247.56896426849914 566.6851255257768,233.6966337734067 576.7862285212193,223.23465760020324C584.9027186536103,214.82819679949364 590.5944236322358,212.76391930231043 607.1568850807533,212.2197748636658C621.7791738931263,211.73937301263413 627.8250512583029,213.01933545268344 635.5993907597468,218.24128948777815C641.2491892802831,222.03620842286026 647.0961709618617,229.96836765351068 650.0364437271621,237.82695080764597C652.6109471669351,244.70792783835975 652.8545371733142,256.5133160982364 650.5558593599528,263.0C647.0970094169406,272.7605963365275 643.639085454599,280.0 642.4357558137983,280.0C641.7404419977319,280.0 639.794765758941,282.2375577831453 638.1120308387076,284.97235062921175C635.7460143168112,288.8176176287576 633.7432077034359,290.59982979885024 629.2762564009597,292.83492938743234C620.2473520951689,297.35266395239904 613.0193151449643,299.0075870141962 605.5,298.27871382188204zM643.078947368421,282.41666666666663C643.1269312900389,281.2517236807212 643.3638876676575,281.0147673031026 643.6831140350878,281.8125C643.9719846491229,282.534375 643.9364583333333,283.396875 643.6041666666667,283.72916666666663C643.271875,284.0614583333333 643.0355263157894,283.4708333333333 643.078947368421,282.41666666666663z"/></svg>